# xmcd
#
# Track frame offsets: 
#        150
#        22825
#        41355
#        62287
#        82587
#        100332
#        120492
#        134930
#        149005
#        164730
#        186597
#        205367
#        222760
#        241540
#        261030
#        282737
#
# Disc length: 4068 seconds
#
# Revision: 3
# Processed by: cddbd v1.5.2PL0 Copyright (c) Steve Scherf et al.
# Submitted via: ExactAudioCopy v1.3
#
DISCID=eb0fe210
DTITLE=Various Artist - Blues Review sampler Oct-Nov 2002]
DYEAR=2002
DGENRE=Blues
TTITLE0=Magic Slim and The Teardrops - I'm a bluesman
TTITLE1=Ernie Hawkins - Mean bittle poodle
TTITLE2=Joe Louis Walker and Otis Grand - I'm getting drunk
TTITLE3=Tommy McCoy - A man who cried
TTITLE4=Eric Jerardi - Blame it on me
TTITLE5=Louisiana Red - Alabama train
TTITLE6=Delicious Blue Stew - Pirogue
TTITLE7=Roger "Hurricane" Wilson - It don't get no better 'n this
TTITLE8=Sue Keller - Yo' mama blues
TTITLE9=Summertime Blues Band - Medicated woman
TTITLE10=James Cotton Blues Band - Cotton crop blues
TTITLE11=Big Al Jano's Blues Mafia Show - Problems of my own
TTITLE12=Seth Allen - Five languages of love
TTITLE13=Lil' Ed and The Blues Imperials - Never miss your water
TTITLE14=Michael Holloway - Sure could play the blues
TTITLE15=Oreo Blue - Blues thang
EXTD=
EXTT0=
EXTT1=
EXTT2=
EXTT3=
EXTT4=
EXTT5=
EXTT6=
EXTT7=
EXTT8=
EXTT9=
EXTT10=
EXTT11=
EXTT12=
EXTT13=
EXTT14=
EXTT15=
PLAYORDER=
